<?xml version="1.0" encoding="UTF-8"?>
<svg xmlns="http://www.w3.org/2000/svg" viewBox="0 0 180 180" width="180" height="180">
  <defs>
    <linearGradient id="bg" x1="0" y1="0" x2="180" y2="180" gradientUnits="userSpaceOnUse">
      <stop offset="0" stop-color="#4ecdc4"/>
      <stop offset="1" stop-color="#2980b9"/>
    </linearGradient>
    <linearGradient id="stroke" x1="0" y1="0" x2="180" y2="180" gradientUnits="userSpaceOnUse">
      <stop offset="0" stop-color="#ffffff"/>
      <stop offset="1" stop-color="#ffffff" stop-opacity="0.85"/>
    </linearGradient>
  </defs>
  <rect width="180" height="180" rx="40" ry="40" fill="url(#bg)"/>
  <g transform="translate(35,35) scale(2.75)">
    <path d="M20 35c-8-2-14-8-12-16s10-12 18-10c-6-1-12 3-13 9s4 12 10 14" stroke="url(#stroke)" stroke-width="3" fill="none" stroke-linecap="round"/>
    <path d="M18 10c8 2 14 8 12 16s-10 12-18 10c6 1 12-3 13-9s-4-12-10-14" stroke="url(#stroke)" stroke-width="3" fill="none" stroke-linecap="round"/>
    <path d="M28 8l4-4 2 5" stroke="url(#stroke)" stroke-width="2.5" fill="none" stroke-linecap="round" stroke-linejoin="round"/>
  </g>
</svg>
