<?xml version="1.0" encoding="UTF-8"?>
<svg xmlns="http://www.w3.org/2000/svg" viewBox="0 0 32 32" width="32" height="32">
  <defs>
    <linearGradient id="bg" x1="0" y1="0" x2="32" y2="32" gradientUnits="userSpaceOnUse">
      <stop offset="0" stop-color="#4ecdc4"/>
      <stop offset="1" stop-color="#2980b9"/>
    </linearGradient>
  </defs>
  <rect width="32" height="32" rx="7" ry="7" fill="url(#bg)"/>
  <path d="M16 26c-6-1.5-10-6-9-12s7-9 13-7.5c-4.5-0.7-9 2.2-9.7 6.7s3 9 7.5 10.5" stroke="#ffffff" stroke-width="2" fill="none" stroke-linecap="round"/>
  <path d="M14.5 8c6 1.5 10 6 9 12s-7 9-13 7.5c4.5 0.7 9-2.2 9.7-6.7s-3-9-7.5-10.5" stroke="#ffffff" stroke-width="2" fill="none" stroke-linecap="round"/>
  <path d="M21 6.5l3-3 1.5 3.7" stroke="#ffffff" stroke-width="1.6" fill="none" stroke-linecap="round" stroke-linejoin="round"/>
</svg>
